<svg width="64" height="64" viewBox="0 0 64 64" xmlns="http://www.w3.org/2000/svg">
  <defs>
    <linearGradient id="bg-grad" x1="0%" y1="0%" x2="100%" y2="100%">
      <stop offset="0%" stop-color="#2563eb" /> <!-- blue-600 -->
      <stop offset="100%" stop-color="#4f46e5" /> <!-- indigo-600 -->
    </linearGradient>
  </defs>
  <!-- Rounded background -->
  <rect width="64" height="64" rx="16" fill="url(#bg-grad)" />
  
  <!-- GraduationCap icon (scaled 2x, centered) -->
  <g transform="translate(8, 8) scale(2)" fill="none" stroke="white" stroke-width="2" stroke-linecap="round" stroke-linejoin="round">
    <path d="M21.42 10.922a2 2 0 0 1-.01 3.833l-8.58 4.604a2 2 0 0 1-1.66 0l-8.58-4.604a2 2 0 0 1-.01-3.833l8.58-4.302a2 2 0 0 1 1.68 0z" />
    <path d="M22 10v6" />
    <path d="M6 12.5V16a6 3 0 0 0 12 0v-3.5" />
  </g>
</svg>
